# Blender 3.6.14
# www.blender.org
mtllib object.mtl
o Wooden_Stool.001
v 0.000000 1.549770 -0.900474
v 0.000000 1.853083 -0.900474
v 0.450237 1.549770 -0.779833
v 0.450237 1.853083 -0.779833
v 0.779833 1.549770 -0.450237
v 0.779833 1.853083 -0.450237
v 0.900474 1.549770 0.000000
v 0.900474 1.853083 0.000000
v 0.779833 1.549770 0.450237
v 0.779833 1.853083 0.450237
v 0.450237 1.549770 0.779833
v 0.450237 1.853083 0.779833
v 0.000000 1.549770 0.900474
v 0.000000 1.853083 0.900474
v -0.450237 1.549770 0.779833
v -0.450237 1.853083 0.779833
v -0.779833 1.549770 0.450237
v -0.779833 1.853083 0.450237
v -0.900474 1.549770 0.000000
v -0.900474 1.853083 0.000000
v -0.779834 1.549770 -0.450237
v -0.779834 1.853083 -0.450237
v -0.450238 1.549770 -0.779833
v -0.450238 1.853083 -0.779833
v 0.658030 0.020766 0.126146
v 0.532604 1.672061 0.126146
v 0.658030 0.020766 -0.126146
v 0.532604 1.672061 -0.126146
v 0.909605 0.020766 0.126146
v 0.784179 1.691060 0.126146
v 0.909605 0.020766 -0.126146
v 0.784179 1.691060 -0.126146
v 0.630661 0.844333 0.090701
v 0.630661 0.844333 -0.090701
v 0.811548 0.857994 -0.090701
v 0.811548 0.857994 0.090701
v -0.206682 0.020766 -0.610275
v -0.143969 1.672061 -0.501653
v -0.425173 0.020766 -0.484129
v -0.362460 1.672061 -0.375507
v -0.332469 0.020766 -0.828145
v -0.269756 1.691060 -0.719523
v -0.550960 0.020766 -0.702000
v -0.488247 1.691060 -0.593378
v -0.223693 0.844333 -0.568850
v -0.380792 0.844333 -0.478149
v -0.471236 0.857994 -0.634802
v -0.314137 0.857994 -0.725504
v -0.412085 0.020766 0.506798
v -0.349372 1.672061 0.398176
v -0.193594 0.020766 0.632944
v -0.130881 1.672061 0.524321
v -0.537873 0.020766 0.724668
v -0.475160 1.691060 0.616046
v -0.319382 0.020766 0.850814
v -0.256669 1.691060 0.742192
v -0.367705 0.844333 0.500818
v -0.210605 0.844333 0.591519
v -0.301049 0.857994 0.748172
v -0.458148 0.857994 0.657471
vn 0.2588 -0.0000 -0.9659
vn 0.7071 -0.0000 -0.7071
vn 0.9659 -0.0000 -0.2588
vn 0.9659 -0.0000 0.2588
vn 0.7071 -0.0000 0.7071
vn 0.2588 -0.0000 0.9659
vn -0.2588 -0.0000 0.9659
vn -0.7071 -0.0000 0.7071
vn -0.9659 -0.0000 0.2588
vn -0.9659 -0.0000 -0.2588
vn -0.0000 1.0000 -0.0000
vn -0.7071 -0.0000 -0.7071
vn -0.2588 -0.0000 -0.9659
vn -0.0000 -1.0000 -0.0000
vn -0.9931 -0.1176 -0.0000
vn 0.0032 -0.0424 -0.9991
vn 0.9995 0.0328 -0.0000
vn 0.0032 -0.0424 0.9991
vn -0.0013 0.0425 0.9991
vn 0.9932 0.1163 -0.0000
vn -0.0013 0.0425 -0.9991
vn -0.9994 -0.0332 -0.0000
vn 0.4965 -0.1176 0.8600
vn -0.8668 -0.0424 0.4968
vn -0.4997 0.0328 -0.8656
vn 0.8636 -0.0424 -0.5023
vn 0.8659 0.0425 -0.4984
vn -0.4966 0.1163 -0.8601
vn -0.8646 0.0425 0.5007
vn 0.4997 -0.0332 0.8655
vn 0.4965 -0.1176 -0.8600
vn 0.8636 -0.0424 0.5023
vn -0.4997 0.0328 0.8656
vn -0.8668 -0.0424 -0.4968
vn -0.8646 0.0425 -0.5007
vn -0.4966 0.1163 0.8601
vn 0.8659 0.0425 0.4984
vn 0.4997 -0.0332 -0.8655
vt 0.802336 0.007650
vt 0.802336 0.313643
vt 0.716723 0.313643
vt 0.716723 0.007650
vt 0.963001 0.328943
vt 0.963001 0.634937
vt 0.913572 0.634937
vt 0.913572 0.328943
vt 0.395070 0.007956
vt 0.702290 0.007956
vt 0.702290 0.057188
vt 0.395070 0.057188
vt 0.702290 0.142459
vt 0.395070 0.142459
vt 0.702290 0.240922
vt 0.395070 0.240922
vt 0.702290 0.326194
vt 0.395070 0.326194
vt 0.395070 0.342106
vt 0.702290 0.342106
vt 0.702290 0.391337
vt 0.395070 0.391337
vt 0.702290 0.476609
vt 0.395070 0.476609
vt 0.702290 0.575072
vt 0.395070 0.575072
vt 0.702290 0.660344
vt 0.395070 0.660344
vt 0.058652 0.713268
vt 0.009224 0.627996
vt 0.009224 0.529533
vt 0.058653 0.444261
vt 0.144266 0.395030
vt 0.243124 0.395030
vt 0.328737 0.444261
vt 0.378166 0.529533
vt 0.378166 0.627996
vt 0.328737 0.713268
vt 0.243124 0.762499
vt 0.144266 0.762499
vt 0.986808 0.007650
vt 0.986808 0.313643
vt 0.901194 0.313643
vt 0.901194 0.007650
vt 0.243124 0.009187
vt 0.328737 0.058418
vt 0.378166 0.143690
vt 0.378166 0.242153
vt 0.328737 0.327425
vt 0.243124 0.376656
vt 0.144266 0.376656
vt 0.058653 0.327425
vt 0.009224 0.242153
vt 0.009224 0.143690
vt 0.058652 0.058418
vt 0.144266 0.009187
vt 0.904363 0.485899
vt 0.911132 0.643801
vt 0.862950 0.643801
vt 0.869719 0.485899
vt 0.803178 0.489463
vt 0.809949 0.647870
vt 0.761767 0.647870
vt 0.768534 0.489463
vt 0.853771 0.488955
vt 0.860540 0.647501
vt 0.812358 0.647501
vt 0.819127 0.488955
vt 0.752590 0.489463
vt 0.759358 0.647870
vt 0.711175 0.647870
vt 0.717946 0.489463
vt 0.577067 0.669499
vt 0.625113 0.669499
vt 0.625113 0.717489
vt 0.577067 0.717489
vt 0.759221 0.329259
vt 0.711312 0.332862
vt 0.860540 0.329250
vt 0.812358 0.329250
vt 0.809812 0.332862
vt 0.761903 0.329259
vt 0.911132 0.329159
vt 0.862950 0.329159
vt 0.397647 0.834110
vt 0.388432 0.676197
vt 0.430137 0.677767
vt 0.427634 0.835239
vt 0.966454 0.810333
vt 0.957156 0.652106
vt 0.998955 0.650535
vt 0.996508 0.809204
vt 0.895260 0.819363
vt 0.904477 0.977590
vt 0.862787 0.979157
vt 0.865285 0.820489
vt 0.844817 0.823437
vt 0.853998 0.981349
vt 0.812199 0.979783
vt 0.814763 0.822311
vt 0.524217 0.717489
vt 0.476172 0.717489
vt 0.476172 0.669499
vt 0.524217 0.669499
vt 0.853998 0.663406
vt 0.812434 0.665445
vt 0.904477 0.659655
vt 0.862787 0.661222
vt 0.957391 0.966440
vt 0.998955 0.968474
vt 0.388432 0.990533
vt 0.430137 0.992102
vt 0.434726 0.835239
vt 0.432223 0.677767
vt 0.473928 0.676197
vt 0.464713 0.834110
vt 0.713580 0.822822
vt 0.711016 0.665350
vt 0.752815 0.663784
vt 0.743634 0.821696
vt 0.915876 0.809242
vt 0.913379 0.650574
vt 0.955068 0.652141
vt 0.945852 0.810368
vt 0.794258 0.823054
vt 0.796704 0.981723
vt 0.754905 0.980153
vt 0.764203 0.821925
vt 0.574665 0.717489
vt 0.526619 0.717489
vt 0.526619 0.669499
vt 0.574665 0.669499
vt 0.796704 0.663784
vt 0.755141 0.665818
vt 0.913379 0.968509
vt 0.955068 0.970076
vt 0.711251 0.979688
vt 0.752815 0.981727
vt 0.432223 0.992102
vt 0.473928 0.990532
s 0
usemtl Wood(Stool)
f 1/1/1 2/2/1 4/3/1 3/4/1
f 3/5/2 4/6/2 6/7/2 5/8/2
f 5/9/3 6/10/3 8/11/3 7/12/3
f 7/12/4 8/11/4 10/13/4 9/14/4
f 9/14/5 10/13/5 12/15/5 11/16/5
f 11/16/6 12/15/6 14/17/6 13/18/6
f 13/19/7 14/20/7 16/21/7 15/22/7
f 15/22/8 16/21/8 18/23/8 17/24/8
f 17/24/9 18/23/9 20/25/9 19/26/9
f 19/26/10 20/25/10 22/27/10 21/28/10
f 4/29/11 2/30/11 24/31/11 22/32/11 20/33/11 18/34/11 16/35/11 14/36/11 12/37/11 10/38/11 8/39/11 6/40/11
f 21/41/12 22/42/12 24/43/12 23/44/12
f 23/44/13 24/43/13 2/2/13 1/1/13
f 1/45/14 3/46/14 5/47/14 7/48/14 9/49/14 11/50/14 13/51/14 15/52/14 17/53/14 19/54/14 21/55/14 23/56/14
f 33/57/15 26/58/15 28/59/15 34/60/15
f 34/61/16 28/62/16 32/63/16 35/64/16
f 35/65/17 32/66/17 30/67/17 36/68/17
f 36/69/18 30/70/18 26/71/18 33/72/18
f 27/73/14 31/74/14 29/75/14 25/76/14
f 29/77/19 36/69/19 33/72/19 25/78/19
f 31/79/20 35/65/20 36/68/20 29/80/20
f 27/81/21 34/61/21 35/64/21 31/82/21
f 25/83/22 33/57/22 34/60/22 27/84/22
f 45/85/23 38/86/23 40/87/23 46/88/23
f 46/89/24 40/90/24 44/91/24 47/92/24
f 47/93/25 44/94/25 42/95/25 48/96/25
f 48/97/26 42/98/26 38/99/26 45/100/26
f 39/101/14 43/102/14 41/103/14 37/104/14
f 41/105/27 48/97/27 45/100/27 37/106/27
f 43/107/28 47/93/28 48/96/28 41/108/28
f 39/109/29 46/89/29 47/92/29 43/110/29
f 37/111/30 45/85/30 46/88/30 39/112/30
f 57/113/31 50/114/31 52/115/31 58/116/31
f 58/117/32 52/118/32 56/119/32 59/120/32
f 59/121/33 56/122/33 54/123/33 60/124/33
f 60/125/34 54/126/34 50/127/34 57/128/34
f 51/129/14 55/130/14 53/131/14 49/132/14
f 53/133/35 60/125/35 57/128/35 49/134/35
f 55/135/36 59/121/36 60/124/36 53/136/36
f 51/137/37 58/117/37 59/120/37 55/138/37
f 49/139/38 57/113/38 58/116/38 51/140/38
