# Blender 3.6.14
# www.blender.org
mtllib object.mtl
o Wooden_Table.001
v -1.028252 0.008732 0.640024
v -1.023798 0.894560 0.635570
v -1.028252 0.008732 0.519980
v -1.023798 0.894560 0.524434
v -0.908208 0.008732 0.640024
v -0.912662 0.894560 0.635570
v -0.908208 0.008732 0.519980
v -0.912662 0.894560 0.524434
v -1.014401 0.500669 0.626173
v -1.014401 0.500669 0.533830
v -0.922058 0.500669 0.533830
v -0.922058 0.500669 0.626173
v 1.028252 0.008732 0.640024
v 1.023798 0.894560 0.635570
v 1.028252 0.008732 0.519980
v 1.023798 0.894560 0.524434
v 0.908208 0.008732 0.640024
v 0.912662 0.894560 0.635570
v 0.908208 0.008732 0.519980
v 0.912662 0.894560 0.524434
v 1.014401 0.500669 0.626173
v 1.014401 0.500669 0.533830
v 0.922058 0.500669 0.533830
v 0.922058 0.500669 0.626173
v -1.028252 0.008732 -0.640024
v -1.023798 0.894560 -0.635570
v -1.028252 0.008732 -0.519980
v -1.023798 0.894560 -0.524434
v -0.908208 0.008732 -0.640024
v -0.912662 0.894560 -0.635570
v -0.908208 0.008732 -0.519980
v -0.912662 0.894560 -0.524434
v -1.014401 0.500669 -0.626173
v -1.014401 0.500669 -0.533830
v -0.922058 0.500669 -0.533830
v -0.922058 0.500669 -0.626173
v 1.028252 0.008732 -0.640024
v 1.023798 0.894560 -0.635570
v 1.028252 0.008732 -0.519980
v 1.023798 0.894560 -0.524434
v 0.908208 0.008732 -0.640024
v 0.912662 0.894560 -0.635570
v 0.908208 0.008732 -0.519980
v 0.912662 0.894560 -0.524434
v 1.014401 0.500669 -0.626173
v 1.014401 0.500669 -0.533830
v 0.922058 0.500669 -0.533830
v 0.922058 0.500669 -0.626173
v -1.190133 1.015066 0.736785
v 1.215388 1.015066 0.736785
v -1.215388 1.016851 -0.736785
v 1.268009 1.016851 -0.736785
v -1.215388 1.016851 -0.245595
v -1.190133 1.015066 0.245595
v 1.215388 1.015066 0.245595
v 1.268009 1.016851 -0.245595
v -1.259189 1.009956 -0.245595
v -1.259189 1.009956 0.245595
v 1.238953 1.009956 0.245595
v 1.238953 1.009956 -0.245595
v -1.190133 0.896486 0.245595
v -1.190133 0.896486 0.736785
v 1.215388 0.896486 0.736785
v 1.268009 0.896486 -0.245595
v 1.268009 0.896486 -0.736785
v -1.215388 0.896486 -0.736785
v -1.215388 0.896486 -0.245595
v 1.215388 0.896486 0.245595
v -1.259189 0.887155 -0.245595
v -1.259189 0.887155 0.245595
v 1.238953 0.887155 0.245595
v 1.238953 0.887155 -0.245595
vn -0.9997 -0.0238 -0.0000
vn -0.0000 -0.0238 -0.9997
vn 0.9997 -0.0238 -0.0000
vn -0.0000 -0.0238 0.9997
vn -0.0000 -1.0000 -0.0000
vn -0.0000 0.0281 0.9996
vn 0.9996 0.0281 -0.0000
vn -0.0000 0.0281 -0.9996
vn -0.9996 0.0281 -0.0000
vn -0.0000 1.0000 -0.0000
vn -0.0000 -0.0000 1.0000
vn -1.0000 -0.0000 -0.0000
vn -0.0000 -0.0000 -1.0000
vn 1.0000 -0.0000 -0.0000
vt 0.503932 0.854678
vt 0.501495 0.743341
vt 0.530330 0.743341
vt 0.527892 0.854678
vt 0.563596 0.859289
vt 0.566034 0.970626
vt 0.537199 0.970626
vt 0.539637 0.859289
vt 0.670453 0.831564
vt 0.668015 0.720227
vt 0.696850 0.720227
vt 0.694412 0.831564
vt 0.272005 0.854678
vt 0.269567 0.743341
vt 0.298402 0.743341
vt 0.295964 0.854678
vt 0.230585 0.742306
vt 0.261732 0.742306
vt 0.261732 0.776239
vt 0.230585 0.776239
vt 0.268411 0.993740
vt 0.299558 0.993740
vt 0.666859 0.970626
vt 0.698006 0.970626
vt 0.567190 0.720227
vt 0.536043 0.720227
vt 0.500339 0.993740
vt 0.531485 0.993740
vt 0.462484 0.854678
vt 0.438525 0.854678
vt 0.436087 0.743341
vt 0.464922 0.743341
vt 0.605045 0.859289
vt 0.629004 0.859289
vt 0.631442 0.970626
vt 0.602607 0.970626
vt 0.429780 0.854678
vt 0.405821 0.854678
vt 0.403383 0.743341
vt 0.432218 0.743341
vt 0.759820 0.831564
vt 0.735861 0.831564
vt 0.733423 0.720227
vt 0.762258 0.720227
vt 0.261732 0.777935
vt 0.261732 0.811868
vt 0.230585 0.811868
vt 0.230585 0.777935
vt 0.763414 0.970626
vt 0.732267 0.970626
vt 0.433374 0.993740
vt 0.402227 0.993740
vt 0.601451 0.720227
vt 0.632598 0.720227
vt 0.466078 0.993740
vt 0.434931 0.993740
vt 0.495188 0.854678
vt 0.471229 0.854678
vt 0.468791 0.743341
vt 0.497626 0.743341
vt 0.328668 0.854678
vt 0.304709 0.854678
vt 0.302271 0.743341
vt 0.331106 0.743341
vt 0.370116 0.882403
vt 0.394076 0.882403
vt 0.396514 0.993740
vt 0.367678 0.993740
vt 0.596300 0.831564
vt 0.572341 0.831564
vt 0.569903 0.720227
vt 0.598738 0.720227
vt 0.197881 0.811868
vt 0.197881 0.777935
vt 0.229028 0.777935
vt 0.229028 0.811868
vt 0.599894 0.970626
vt 0.568747 0.970626
vt 0.366523 0.743341
vt 0.397669 0.743341
vt 0.332262 0.993740
vt 0.301115 0.993740
vt 0.498782 0.993740
vt 0.467635 0.993740
vt 0.727116 0.859289
vt 0.729554 0.970626
vt 0.700719 0.970626
vt 0.703157 0.859289
vt 0.768565 0.831564
vt 0.766127 0.720227
vt 0.794962 0.720227
vt 0.792524 0.831564
vt 0.337412 0.854678
vt 0.334974 0.743341
vt 0.363810 0.743341
vt 0.361372 0.854678
vt 0.661708 0.859289
vt 0.664146 0.970626
vt 0.635311 0.970626
vt 0.637749 0.859289
vt 0.229028 0.776239
vt 0.197881 0.776239
vt 0.197881 0.742306
vt 0.229028 0.742306
vt 0.665302 0.720227
vt 0.634155 0.720227
vt 0.333819 0.993740
vt 0.364965 0.993740
vt 0.764971 0.970626
vt 0.796117 0.970626
vt 0.730710 0.720227
vt 0.699563 0.720227
vt 0.270819 0.719532
vt 0.270818 0.017550
vt 0.398262 0.017550
vt 0.398262 0.719532
vt 0.672267 0.696968
vt 0.672267 0.016999
vt 0.799711 0.016999
vt 0.799711 0.696968
vt 0.137002 0.723804
vt 0.137002 0.017654
vt 0.264446 0.017654
vt 0.264446 0.723804
vt 0.532079 0.719532
vt 0.404635 0.719532
vt 0.404635 0.017550
vt 0.532078 0.017550
vt 0.665895 0.696968
vt 0.538451 0.696968
vt 0.538451 0.016999
vt 0.665895 0.016999
vt 0.130630 0.723804
vt 0.003186 0.723804
vt 0.003186 0.017654
vt 0.130630 0.017654
vt 0.901818 0.719532
vt 0.870588 0.719532
vt 0.870588 0.017550
vt 0.901817 0.017550
vt 0.067690 0.744929
vt 0.098920 0.744929
vt 0.098920 0.883773
vt 0.067690 0.883773
vt 0.837148 0.017654
vt 0.869010 0.017654
vt 0.869010 0.723804
vt 0.837149 0.723804
vt 0.999231 0.696968
vt 0.968464 0.696968
vt 0.968464 0.016999
vt 0.999231 0.016999
vt 0.000797 0.744929
vt 0.032658 0.744929
vt 0.032658 0.883773
vt 0.000797 0.883773
vt 0.133261 0.744929
vt 0.164028 0.744929
vt 0.164028 0.883773
vt 0.133261 0.883773
vt 0.100482 0.744929
vt 0.131711 0.744929
vt 0.131711 0.883773
vt 0.100482 0.883773
vt 0.034251 0.744929
vt 0.066113 0.744929
vt 0.066113 0.883773
vt 0.034251 0.883773
vt 0.936159 0.016999
vt 0.966925 0.016999
vt 0.966926 0.696968
vt 0.936159 0.696968
vt 0.903379 0.017550
vt 0.934609 0.017550
vt 0.934609 0.719532
vt 0.903379 0.719532
vt 0.835555 0.723804
vt 0.803694 0.723804
vt 0.803693 0.017654
vt 0.835555 0.017654
vt 0.165567 0.744929
vt 0.196333 0.744929
vt 0.196333 0.883773
vt 0.165567 0.883773
s 0
usemtl Wood(Table)
f 9/1/1 2/2/1 4/3/1 10/4/1
f 10/5/2 4/6/2 8/7/2 11/8/2
f 11/9/3 8/10/3 6/11/3 12/12/3
f 12/13/4 6/14/4 2/15/4 9/16/4
f 3/17/5 7/18/5 5/19/5 1/20/5
f 5/21/6 12/13/6 9/16/6 1/22/6
f 7/23/7 11/9/7 12/12/7 5/24/7
f 3/25/8 10/5/8 11/8/8 7/26/8
f 1/27/9 9/1/9 10/4/9 3/28/9
f 21/29/3 22/30/3 16/31/3 14/32/3
f 22/33/2 23/34/2 20/35/2 16/36/2
f 23/37/1 24/38/1 18/39/1 20/40/1
f 24/41/4 21/42/4 14/43/4 18/44/4
f 15/45/5 13/46/5 17/47/5 19/48/5
f 17/49/6 13/50/6 21/42/6 24/41/6
f 19/51/9 17/52/9 24/38/9 23/37/9
f 15/53/8 19/54/8 23/34/8 22/33/8
f 13/55/7 15/56/7 22/30/7 21/29/7
f 33/57/1 34/58/1 28/59/1 26/60/1
f 34/61/4 35/62/4 32/63/4 28/64/4
f 35/65/3 36/66/3 30/67/3 32/68/3
f 36/69/2 33/70/2 26/71/2 30/72/2
f 27/73/5 25/74/5 29/75/5 31/76/5
f 29/77/8 25/78/8 33/70/8 36/69/8
f 31/79/7 29/80/7 36/66/7 35/65/7
f 27/81/6 31/82/6 35/62/6 34/61/6
f 25/83/9 27/84/9 34/58/9 33/57/9
f 45/85/3 38/86/3 40/87/3 46/88/3
f 46/89/4 40/90/4 44/91/4 47/92/4
f 47/93/1 44/94/1 42/95/1 48/96/1
f 48/97/2 42/98/2 38/99/2 45/100/2
f 39/101/5 43/102/5 41/103/5 37/104/5
f 41/105/8 48/97/8 45/100/8 37/106/8
f 43/107/9 47/93/9 48/96/9 41/108/9
f 39/109/6 46/89/6 47/92/6 43/110/6
f 37/111/7 45/85/7 46/88/7 39/112/7
f 53/113/10 56/114/10 52/115/10 51/116/10
f 49/117/10 50/118/10 55/119/10 54/120/10
f 58/121/10 59/122/10 60/123/10 57/124/10
f 67/125/5 66/126/5 65/127/5 64/128/5
f 62/129/5 61/130/5 68/131/5 63/132/5
f 70/133/5 69/134/5 72/135/5 71/136/5
f 53/137/11 67/138/11 64/139/11 56/140/11
f 51/141/12 66/142/12 67/143/12 53/144/12
f 60/145/13 72/146/13 69/147/13 57/148/13
f 49/149/11 62/150/11 63/151/11 50/152/11
f 57/153/12 69/154/12 70/155/12 58/156/12
f 50/157/14 63/158/14 68/159/14 55/160/14
f 56/161/14 64/162/14 65/163/14 52/164/14
f 59/165/14 71/166/14 72/167/14 60/168/14
f 55/169/13 68/170/13 61/171/13 54/172/13
f 52/173/13 65/174/13 66/175/13 51/176/13
f 58/177/11 70/178/11 71/179/11 59/180/11
f 54/181/12 61/182/12 62/183/12 49/184/12
